<?xml version="1.0" standalone="no"?>
<!DOCTYPE svg PUBLIC "-//W3C//DTD SVG 20010904//EN"
 "http://www.w3.org/TR/2001/REC-SVG-20010904/DTD/svg10.dtd">
<svg version="1.0" xmlns="http://www.w3.org/2000/svg"
 width="700.000000pt" height="700.000000pt" viewBox="0 0 700.000000 700.000000"
 preserveAspectRatio="xMidYMid meet">
<metadata>
Created by potrace 1.11, written by Peter Selinger 2001-2013
</metadata>
<g transform="translate(0.000000,700.000000) scale(0.100000,-0.100000)"
fill="#000000" stroke="none">
<path d="M0 3500 l0 -3500 3500 0 3500 0 0 3500 0 3500 -3500 0 -3500 0 0
-3500z m1388 995 c482 -70 733 -287 818 -709 21 -106 29 -343 15 -466 -40
-354 -185 -586 -446 -714 -216 -106 -457 -139 -975 -134 l-285 3 -3 1010 c-1
556 0 1016 3 1024 8 20 721 8 873 -14z m1815 -674 c193 -513 263 -689 269
-675 4 10 122 323 262 694 l254 675 206 3 206 2 0 -1025 0 -1025 -135 0 -135
0 -2 891 -3 892 -260 -692 -260 -691 -140 0 -141 0 -259 692 -260 691 -3 -891
-2 -892 -135 0 -135 0 0 1018 c0 560 3 1022 7 1026 4 3 97 5 206 4 l200 -3
260 -694z m2647 689 c396 -30 586 -211 568 -543 -12 -198 -102 -324 -272 -376
l-61 -19 45 -12 c129 -34 259 -139 318 -256 42 -84 57 -155 56 -269 0 -320
-206 -515 -584 -555 -52 -5 -267 -10 -477 -10 l-383 0 0 1025 0 1025 333 0
c182 0 388 -5 457 -10z"/>
<path d="M790 3494 l0 -796 268 5 c286 6 358 15 482 64 257 102 380 309 397
668 6 126 -6 252 -33 363 -44 183 -159 328 -316 401 -152 71 -283 91 -595 91
l-203 0 0 -796z"/>
<path d="M5340 3980 l0 -312 268 4 c242 4 273 7 336 27 86 28 157 91 180 158
19 56 21 179 4 237 -8 25 -32 61 -63 93 -40 41 -63 55 -120 74 -64 20 -93 23
-337 27 l-268 4 0 -312z"/>
<path d="M5340 3076 l0 -376 253 0 c138 0 281 5 317 11 132 21 227 85 269 180
30 68 43 172 32 251 -17 119 -62 194 -148 245 -85 50 -127 56 -435 60 l-288 5
0 -376z"/>
</g>
</svg>
