<?xml version="1.0" encoding="utf-8"?>
<!-- Generator: Adobe Illustrator 24.0.1, SVG Export Plug-In . SVG Version: 6.00 Build 0)  -->
<svg version="1.1" id="Capa_1" xmlns="http://www.w3.org/2000/svg" xmlns:xlink="http://www.w3.org/1999/xlink" x="0px" y="0px"
	 viewBox="0 0 295.4 295.4" style="enable-background:new 0 0 295.4 295.4;" xml:space="preserve">
<style type="text/css">
	.st0{fill:#FFFFFF;}
</style>
<path class="st0" d="M147.7,0C66.3,0,0,66.3,0,147.7s66.3,147.7,147.7,147.7s147.7-66.3,147.7-147.7S229.2,0,147.7,0z M147.7,232.7
	c-8.3,0-15-6.7-15-15s6.7-15,15-15s15,6.7,15,15C162.7,226,156,232.7,147.7,232.7z M162.7,155.7c0,8.3-6.7,15-15,15s-15-6.7-15-15
	v-79c0-8.3,6.7-15,15-15s15,6.7,15,15V155.7z"/>
</svg>
