<svg xmlns="http://www.w3.org/2000/svg" viewBox="0 0 40 40" width="25" height="25">
   <g fill="#FFFFFF" fill-rule="nonzero">
    <path d="M8.250667 5.83378c6.493599 6.82024 12.985538 13.638702 19.481084 20.460949 4.67374-5.23818 5.18729-13.791559-.215047-19.414689-5.430155-5.652199-13.969936-5.399693-19.266037-1.04626M6.323542 7.588767c-3.44602 4.22718-4.699555 8.937183-3.009515 14.122327 1.79868 5.518263 5.75968 8.7337 11.496522 9.555548 4.115545.589524 7.806606-.603514 11.042902-3.134766-6.516781-6.854813-12.99796-13.6723-19.529909-20.54311M16.542088 0h1.717171c.102115.01892.2036.0426.3064.056017.68853.089902 1.384785.139727 2.0649.272516 3.388094.661652 6.300933 2.227315 8.703656 4.711207 2.416633 2.49834 3.892772 5.479504 4.439576 8.916027.098566.619282.152027 1.24573.226209 1.868854v1.605396c-.045047.425545-.081795.852064-.136572 1.276347-.320654 2.48372-1.104027 4.811373-2.441532 6.929235-.586529.928836-1.205856 1.857157-1.94298 2.664098-.611657.669622-1.285876 1.299682-2.017734 1.867649-2.541472 1.97263-5.371027 3.23172-8.560674 3.664431-.479606.065076-.961673.112607-1.442595.168223H15.74074c-.111273-.019723-.221916-.045754-.334047-.057966-.43559-.047531-.874785-.07058-1.30694-.138695-3.264172-.514186-6.158064-1.833764-8.607895-4.066182C2.326195 26.852547.540623 23.261275.111673 18.995049.070747 18.588425.037033 18.181056 0 17.77403v-.573355c.01242-.113066.023296-.226304.037492-.339198.13434-1.068506.19238-2.153524.418188-3.202307.72894-3.385494 2.373303-6.284438 4.852556-8.693049C8.054737 2.297838 11.330758.689976 15.127939.167133 15.598101.10246 16.070667.055272 16.542088 0" fill="#001731"/>
  </g>
</svg>