<svg xmlns="http://www.w3.org/2000/svg" viewBox="0 0 30 42">
  <defs/>
  <g fill-rule="evenodd" >
    <path  fill-rule="nonzero" stroke-width=".3" d="M8.496 28.258c.925 0 1.683.283 2.275.85.593.566.89 1.285.89 2.158 0 .859-.29 1.569-.87 2.129-.58.56-1.344.84-2.295.84-.95 0-1.715-.28-2.295-.84-.58-.56-.869-1.27-.869-2.13 0-.872.296-1.591.889-2.158.592-.566 1.35-.85 2.275-.85zm.39-23.086c.753 0 1.459.05 2.119.148L11 5.5h0a6.5 6.5 0 006.5 6.5l.067-.001c.02.269.03.545.03.83a6.879 6.879 0 01-.742 3.134c-.456.907-1.23 1.906-2.318 2.997l-.28.274-1.581 1.504-.206.206c-.796.835-1.282 1.79-1.456 2.863l-.037.271-.079 1.192h-5l.004-.385c.03-1.644.25-2.967.66-3.97.443-1.082 1.254-2.146 2.432-3.194 1.179-1.048 1.963-1.901 2.354-2.559a4.01 4.01 0 00.586-2.08c0-2.2-1.016-3.3-3.047-3.3-.964 0-1.735.295-2.315.888-.53.543-.83 1.275-.896 2.195l-.012.256H0l.008-.336c.093-2.327.894-4.161 2.404-5.504 1.582-1.406 3.74-2.11 6.475-2.11z"/>
    <path fill-rule="nonzero" d="M19.347 3l.653.653L18.153 5.5 20 7.347 19.347 8 17.5 6.153 15.653 8 15 7.347 16.846 5.5 15 3.653 15.653 3 17.5 4.847 19.347 3z"/>
  </g>
</svg>