<svg xmlns="http://www.w3.org/2000/svg" viewBox="0 0 25 25" width="25" height="25">
  <g fill-rule="nonzero">
    <path d="M13.131313 7.164359L6.666667.316075c-.10101-.105359-.20202-.210717-.40404-.210717C6.161616 0 6.060606 0 5.858585 0c-.10101 0-.20202 0-.30303.105358-.20202 0-.30303.105358-.40404.210717-.101011.105358-.202021.210716-.202021.316074-.10101.210717-.10101.316075-.10101.421433V4.74112H1.0101C.404041 4.74112 0 5.26791 0 5.794702c0 .526791.50505 1.053582 1.010101 1.053582h4.949495c.60606 0 1.010101-.52679 1.010101-1.053582V3.687538l4.040404 4.214328-4.040404 4.21433v-1.580374c0-.63215-.50505-1.053582-1.010101-1.053582-.50505 0-1.010101.52679-1.010101 1.053582v4.214329c0 .105358 0 .316074.10101.421432.10101.316075.30303.526791.60606.63215.10101.105358.303031.105358.404041.105358.10101 0 .30303 0 .40404-.105358.10101-.105358.20202-.105358.30303-.210717l6.565657-6.848284c.20202-.210716.30303-.526791.30303-.842866-.20202-.210716-.30303-.52679-.50505-.737507zM11.868687 17.787879l6.565656 6.89394c.10101.10606.20202.21212.30303.21212C18.838384 25 18.939394 25 19.040405 25c.10101 0 .30303 0 .40404-.10606.10101-.106061.20202-.106061.30303-.212122.10101-.10606.20202-.212121.20202-.318182.101011-.10606.101011-.318181.101011-.424242v-3.712121H23.9899c.60606 0 1.010101-.530303 1.010101-1.060606 0-.636364-.50505-1.060606-1.010101-1.060606h-4.949495c-.60606 0-1.010101.530303-1.010101 1.060606v2.227272l-4.040404-4.242424 4.040404-4.242424V14.5c0 .636364.50505 1.060606 1.010101 1.060606.50505 0 1.010101-.530303 1.010101-1.060606v-4.242424c0-.10606 0-.318182-.10101-.424243-.10101-.318181-.30303-.530303-.60606-.636363-.10101-.10606-.303031-.10606-.404041-.10606-.10101 0-.30303 0-.40404.10606-.10101.10606-.20202.10606-.30303.21212l-6.565657 6.89394c-.20202.212122-.30303.530303-.30303.848485.20202.10606.20202.424243.50505.636364z"/>
  </g>
</svg>