<svg xmlns="http://www.w3.org/2000/svg" viewBox="0 0 32 32" width="28" height="31">
  <path d="M17.906194 15.41952c2.287164-1.346394 3.82652-3.834664 3.82652-6.677523C21.732714 4.472975 18.263904 1 14 1S6.267523 4.473211 6.267523 8.741997c0 2.842859 1.539355 5.33113 3.82652 6.677522C4.828646 16.92356 1 21.382895 1 26.636858c0 2.095336 3.089586 2.63929 4.254447 2.844516C7.173499 29.815842 9.843197 30 12.771542 30c1.575765 0 4.117793-.078587 6.52648-.299198.520132-.047579.903138-.508449.855617-1.029205-.047757-.520757-.509257-.90375-1.02797-.856645-2.345325.214694-4.82021.29115-6.354127.29115-2.8229 0-5.37746-.174217-7.191067-.490221-2.454552-.432229-2.687666-.971922-2.689084-.97926C2.89139 21.196133 7.87473 16.7697 14 16.7697c6.125268 0 11.10861 4.426196 11.10861 9.866921 0 .522887.423435.94683.945695.94683S27 27.159509 27 26.636622c.000236-5.253726-3.82841-9.713061-9.093806-11.217102zm-9.74728-6.677523c0-3.224905 2.620284-5.848336 5.841322-5.848336 3.221039 0 5.841324 2.623668 5.841324 5.848336s-2.620522 5.848336-5.841324 5.848336c-3.220801 0-5.841323-2.623431-5.841323-5.848336z" fill-rule="nonzero" stroke-width=".5"/>
</svg>