
<svg width="20px" height="20px" viewBox="0 0 20 20" version="1.1" xmlns="http://www.w3.org/2000/svg" xmlns:xlink="http://www.w3.org/1999/xlink">
    <desc>Created with Sketch.</desc>
    <defs></defs>
    <g id="ðŸ“-Design" stroke="none" stroke-width="1" fill="none" fill-rule="evenodd">
        <g id="Categories_Travel_Mine-(Navy)-Copy" transform="translate(-186.000000, -654.000000)">
            <g id="Icon/Question" transform="translate(186.000000, 653.000000)">
                <circle id="Oval-2" fill="#FF9933" cx="10" cy="11" r="10"></circle>
                <g id="noun_1679760_cc" stroke-width="1" transform="translate(6.000000, 5.000000)" fill="#FFFFFF">
                    <path d="M0,3.2864298 C0,-0.934205764 8,-1.20650483 8,3.15028027 C8,5.73712142 5.37931034,5.60097188 4.82758621,8.0516635 C4.55172414,9.27700931 2.89655172,9.14085978 2.89655172,7.77936443 C2.89655172,5.46482235 4.82758621,5.32867282 5.65517241,3.83102794 C6.20689655,2.74183166 5.24137931,1.65263539 4.13793103,1.65263539 C1.79310345,1.65263539 2.62068966,4.23947654 1.10344828,4.23947654 C0.551724138,4.23947654 0,3.83102794 0,3.2864298 Z M3.86206897,12 C2.20689655,12 2.34482759,9.54930838 3.86206897,9.54930838 C5.51724138,9.54930838 5.51724138,12 3.86206897,12 Z" id="Shape"></path>
                </g>
            </g>
        </g>
    </g>
</svg>