<svg width="28" height="29" viewBox="0 0 33 33" xmlns="http://www.w3.org/2000/svg">
  <path d="M27.446625 25.46752l-.034568-.035768-7.362885-7.618795c1.278999-1.895757 1.935782-4.149203 1.935782-6.438418C21.984954 5.114966 17.041796 0 10.992477 0 4.943157 0 0 5.114966 0 11.374539c0 6.259573 4.943158 11.374538 10.992477 11.374538 2.212322 0 4.390077-.71538 6.222157-2.003063l7.362885 7.618795c.760486.822687 2.039485.858456 2.834538.035769.760486-.786918.795054-2.11037.034568-2.933057zm-16.454148-5.794576c-4.424645 0-8.019669-3.719975-8.019669-8.298405 0-4.57843 3.595024-8.298406 8.019669-8.298406s8.019669 3.719975 8.019669 8.298406c0 4.57843-3.595024 8.298405-8.019669 8.298405z" fill-rule="nonzero"/>
</svg>
