
<svg width="19px" height="19px" viewBox="0 0 19 19" version="1.1" xmlns="http://www.w3.org/2000/svg" xmlns:xlink="http://www.w3.org/1999/xlink">
    <defs>
        <path d="M15.5361898,12.0795734 C14.5254622,12.0795734 13.6166467,12.5195936 12.98719,13.2173913 L6.82810627,10.1600303 C6.86407522,9.95860415 6.88445763,9.75118319 6.88445763,9.5377674 C6.88445763,9.49700259 6.8820597,9.45503881 6.88086073,9.41187606 L13.2521613,6.04877895 C13.8600366,6.59071118 14.6597463,6.92042658 15.5361898,6.92042658 C17.4377485,6.92042658 18.9784186,5.37256263 18.9784186,3.46141225 C18.9784186,1.55026188 17.4377485,0 15.5361898,0 C13.6358301,0 12.093961,1.55026188 12.093961,3.46141225 C12.093961,3.60289014 12.1047517,3.74436802 12.1215372,3.88344797 L5.9300814,7.14942891 C5.30302265,6.49119707 4.42058434,6.07995204 3.44222881,6.07995204 C1.54067016,6.07995204 0,7.62781599 0,9.5377674 C0,11.4501167 1.54067016,12.9991797 3.44222881,12.9991797 C4.2431375,12.9991797 4.97930208,12.7234177 5.56439705,12.2606172 L12.09516,15.5026188 C12.09516,15.5158074 12.093961,15.5277971 12.093961,15.5409857 C12.093961,17.4521361 13.6358301,19 15.5361898,19 C17.4377485,19 18.9784186,17.4521361 18.9784186,15.5409857 C18.9784186,13.6310343 17.4377485,12.0795734 15.5361898,12.0795734" id="path-1"></path>
    </defs>
    <g id="🔄-Symbols" stroke="none" stroke-width="1" fill="none" fill-rule="evenodd">
        <g id="Share">
            <mask id="mask-2" fill="white">
                <use xlink:href="#path-1"></use>
            </mask>
            <use id="Mask" fill="#001731" xlink:href="#path-1"></use>
        </g>
    </g>
</svg>