<svg xmlns="http://www.w3.org/2000/svg" viewBox="0 0 45.19 43.2">
  <defs/>
  <g data-name="Layer 2">
    <path fill="#343434" d="M45.11 16.42A2 2 0 0043.18 15H28.91L24.83 2.4c-.11-.31-.21-.63-.31-.94a2 2 0 00-.93-1.18 2.1 2.1 0 00-.29-.15h-.18L23 0a1.52 1.52 0 00-.21 0h-.72L22 .1a2.12 2.12 0 00-1.27 1.33Q18.46 8.21 16.28 15H2a2 2 0 00-1.93 1.42A2.07 2.07 0 001 18.68L12.38 27 8.24 39.69l-.3.94c-.52 1.58 1.5 3.3 2.94 2.26l11.71-8.52 10.92 7.94c.27.19.54.38.8.58 1.44 1 3.45-.68 2.94-2.26L32.81 27l10.59-7.74.79-.58a2 2 0 00.92-2.26z" data-name="Capa 1"/>
  </g>
</svg>