<?xml version="1.0" encoding="utf-8"?>
<!-- Generator: Adobe Illustrator 16.0.0, SVG Export Plug-In . SVG Version: 6.00 Build 0)  -->
<!DOCTYPE svg PUBLIC "-//W3C//DTD SVG 1.1//EN" "http://www.w3.org/Graphics/SVG/1.1/DTD/svg11.dtd">
<svg version="1.1" id="Layer_1" xmlns="http://www.w3.org/2000/svg" xmlns:xlink="http://www.w3.org/1999/xlink" x="0px" y="0px"
	 width="20.192px" height="24.039px" viewBox="1.375 0 20.192 24.039" enable-background="new 1.375 0 20.192 24.039"
	 xml:space="preserve">
<g>
	<path d="M14.602,3.906c-0.606-0.4-1.01-1.102-1.01-1.803C13.592,0.901,12.683,0,11.471,0s-2.12,0.901-2.12,2.104
		c0,0.801-0.404,1.402-1.01,1.803C3.596,6.711,6.322,15.725,1.375,17.328v1.702c2.827-0.4,3.534-2.003,3.534-2.003
		c1.211-1.703,1.615-3.906,2.019-5.81C7.433,8.814,7.836,6.51,9.351,5.709c1.414-0.801,3.029-0.801,4.341,0
		c1.515,0.901,1.918,3.105,2.423,5.509c0.404,1.903,0.808,4.106,2.02,5.81H7.735L7.635,19.03h13.933v-1.702
		C16.62,15.725,19.346,6.711,14.602,3.906z M11.471,24.039c1.615,0,3.029-1.402,3.029-3.006H8.442
		C8.442,22.637,9.856,24.039,11.471,24.039z"/>
	<ellipse cx="7.594" cy="18.029" rx="0.984" ry="0.977"/>
</g>
</svg>
