<svg xmlns="http://www.w3.org/2000/svg" width="13" height="11" viewBox="0 0 13 11">
  <path fill="currentcolor" d="M763.5,154.899926 L763.5,152.814815 C763.5,152.606222 763.420375,152.39763 763.261938,152.237926 C763.1035,152.079037 762.8955,152 762.6875,152 C762.4795,152 762.2715,152.079037 762.113062,152.237926 L757,157.296296 L762.113062,162.353852 C762.2715,162.512741 762.4795,162.592593 762.6875,162.592593 C762.8955,162.592593 763.1035,162.512741 763.261938,162.353852 C763.420375,162.194963 763.5,161.985556 763.5,161.777778 L763.5,159.749704 C765.734375,159.805111 768.175938,160.210889 770,163 L770,162.185185 C770,158.410148 767.15625,155.305704 763.5,154.899926 Z" transform="translate(-757 -152)"/>
</svg>
