<svg xmlns="http://www.w3.org/2000/svg" width="30" viewBox="0 0 37 22">
  <defs/>
  <g fill="currentColor" fill-rule="nonzero">
    <path d="M18.5 0C11.736 0 6.467 4.049 0 10.62c5.567 5.618 10.241 10.62 18.5 10.62 8.25 0 14.321-6.338 18.5-10.503C32.722 5.857 26.66 0 18.5 0zm0 18.196c-4.08 0-7.4-3.402-7.4-7.576 0-4.181 3.32-7.575 7.4-7.575s7.4 3.402 7.4 7.575c0 4.182-3.32 7.576-7.4 7.576z"/>
    <path d="M18.843 7.946c0-.66.247-1.261.647-1.73a4.14 4.14 0 00-.647-.05 4.46 4.46 0 00-4.454 4.454 4.46 4.46 0 004.454 4.454 4.46 4.46 0 004.453-4.454c0-.192-.017-.384-.034-.576a2.752 2.752 0 01-1.686.576c-1.516 0-2.733-1.195-2.733-2.674z"/>
  </g>
</svg>