<svg xmlns="http://www.w3.org/2000/svg" style="max-height:80px; max-width: 100px;" viewBox="0 0 376.7 304.2" width="100%" height="100%"><path fill="#572642" d="M0 0h6.3v303.3H0z"/><path d="M37.6 172h9.7l16.8 44.6L80.9 172h9.7v53.1h-6.7v-44.2h-.2l-16.6 44.2h-6l-16.6-44.2h-.2v44.2h-6.7zm62 14.6h6.3v38.5h-6.3v-38.5zm6.3-6.9h-6.3V172h6.3v7.7zm7.7 6.9h6v6.1h.1c2.7-4.8 7-7 12.5-7 10.1 0 13.3 5.8 13.3 14.1v25.3h-6.3V199c0-4.7-3-7.7-7.8-7.7-7.7 0-11.4 5.1-11.4 12.1v21.7h-6.3v-38.5zm39.7 0h6.3v38.5h-6.3v-38.5zm6.4-6.9h-6.3V172h6.3v7.7zm11.8 33.3c.2 5.7 5.1 7.4 10.3 7.4 3.9 0 9.3-.9 9.3-5.7 0-4.9-6.3-5.7-12.6-7.1s-12.6-3.5-12.6-10.9c0-7.7 7.7-10.9 14.4-10.9 8.5 0 15.3 2.7 15.8 12.1h-6.3c-.4-4.9-4.8-6.5-8.9-6.5-3.8 0-8.2 1-8.2 4.9 0 4.5 6.7 5.3 12.6 6.7 6.3 1.4 12.6 3.5 12.6 10.9 0 9.2-8.6 12.1-16.4 12.1-8.6 0-15.9-3.5-16.3-13h6.3zm40.5-26.4h7.7v5.6H212v23.9c0 2.9.8 3.4 4.8 3.4h2.9v5.6h-4.8c-6.6 0-9.2-1.3-9.2-8.4v-24.5h-6.5v-5.6h6.5v-11.5h6.3v11.5zm12.3 0h6v8.1h.1c3.1-6.2 7.3-9.2 14.2-9v6.7c-10.2 0-13.9 5.8-13.9 15.6v17.1h-6.3v-38.5zm41.1 43.7c-2.9 7.5-5.5 10.3-11.2 10.3-1.5 0-3-.1-4.4-.7v-5.8c1.2.4 2.5.9 3.7.9 2.6 0 4-1.3 5.2-3.5l2.6-6.6-15.3-38.3h7.2l11.2 31.5h.1l10.8-31.5h6.7l-16.6 43.7zM53 298.7c6.6 0 12-5.2 12-14.5 0-9.4-5.4-14.6-12-14.6s-12 5.2-12 14.6c.1 9.2 5.4 14.5 12 14.5m0-34.7c12.2 0 18.7 8.9 18.7 20.2 0 11.2-6.5 20.1-18.7 20.1s-18.7-8.9-18.7-20.1c.1-11.4 6.5-20.2 18.7-20.2m26.4 6.4h-6.5v-5.6h6.5v-5.7c0-6.3 3.7-9.5 10.6-9.5 1.2 0 2.9.2 4.1.6v5.5c-1.1-.4-2.5-.5-3.6-.5-3 0-4.8 1-4.8 4.3v5.4h7.4v5.6h-7.4v32.9h-6.3v-33zm46.7 27h11.8c4.8 0 17.9-1.3 17.9-20.9 0-12.7-4.7-20.3-17.7-20.3h-11.9v41.2zm-7.1-47.2h18.2c16.4 0 25.5 8.2 25.5 25.3 0 17.8-7.8 27.8-25.5 27.8H119v-53.1zm76.7 30.2c-.3-6-4.8-10.9-11.1-10.9-6.6 0-10.6 5-11 10.9h22.1zm6.1 10.7c-1.7 8.5-7.8 13.1-16.5 13.1-12.3 0-18.1-8.5-18.5-20.3 0-11.5 7.6-20 18.1-20 13.6 0 17.8 12.7 17.4 22h-28.8c-.2 6.7 3.6 12.7 12 12.7 5.2 0 8.9-2.5 10-7.5h6.3zm7.8-20.7h-6.5v-5.6h6.5v-5.7c0-6.3 3.7-9.5 10.6-9.5 1.2 0 2.9.2 4.1.6v5.5c-1.1-.4-2.4-.5-3.6-.5-3.1 0-4.8 1-4.8 4.3v5.4h7.4v5.6H216v32.9h-6.3v-33zm43.6 10c-.3-6-4.8-10.9-11.1-10.9-6.6 0-10.6 5-11 10.9h22.1zm6.1 10.7c-1.7 8.5-7.8 13.1-16.5 13.1-12.3 0-18.1-8.5-18.5-20.3 0-11.5 7.6-20 18.1-20 13.6 0 17.8 12.7 17.4 22H231c-.2 6.7 3.6 12.7 12 12.7 5.2 0 8.9-2.5 10-7.5h6.3zm5.8-26.3h6v6.1h.1c2.7-4.8 7-7 12.5-7 10.1 0 13.3 5.8 13.3 14.1v25.3h-6.3v-26.1c0-4.7-3-7.7-7.8-7.7-7.7 0-11.4 5.1-11.4 12.1v21.7h-6.3v-38.5zm65.8 12.4c-1-4.8-4.3-7.7-9.5-7.7-9.2 0-12 7.2-12 15 0 7.1 3.2 14.1 11.2 14.1 6.1 0 9.8-3.6 10.6-9.4h6.5c-1.4 9.4-7.3 15-17 15-11.8 0-18-8.2-18-19.7s6-20.6 18.2-20.6c8.7 0 15.7 4.1 16.6 13.2h-6.6zm39.1 3.2c-.3-6-4.8-10.9-11.1-10.9-6.6 0-10.6 5-11 10.9H370zm6.1 10.7c-1.7 8.5-7.8 13.1-16.5 13.1-12.3 0-18.1-8.5-18.5-20.3 0-11.5 7.6-20 18.1-20 13.6 0 17.8 12.7 17.4 22h-28.8c-.2 6.7 3.6 12.7 12 12.7 5.2 0 8.9-2.5 10-7.5h6.3zM88.1 31.7h0m11.8 13.5l2-9.9c-.4-.1-.8-.3-1.1-.6-.9 1-2.8 2.7-4.5 2.7h-.2c-.5 0-1-.2-1.3-.5.4-.5.4-1.2 0-1.6l-.1-.1v.1c0 .2-.1.5-.3.6h-.2a.55.55 0 0 1-.5-.3c-.1-.2-.2-.4-.2-.6v-.4l.4.1h.1c.2 0 .3-.2.4-.4 0-.3-.1-.5-.3-.6l-.4-.1c0-.1.1-.3.2-.5.2-.3.4-.6.8-.6h.1a.55.55 0 0 1 .5.3c.1.2.2.4.2.7 0 .1 0 .2-.1.3 0 .1.1.1.2.1.2 0 .4-.1.6-.2.3-.2.5-.5.6-.8 0-.1.1-.2.1-.3a2.44 2.44 0 0 0-.6-2.2c-.3-.3-.6-.4-1-.4h0c-.4 0-.7.2-1 .4-.5.4-.7 1-1 1.6v.1l-.3.9c0 .2-.1.3-.1.5h-.2c0-.2.1-.3.1-.5l.3-.9.9-2c.2-.4.4-.9.4-1.4 0-.4 0-.9-.2-1.3l-1-3-1.7 2.3c-.2.3-.4.7-.4 1.1-.1.5 0 1 .1 1.5l.4 2.3v1.5h-.2v-1.6c-.1-.7-.2-1.4-.6-1.9a1.96 1.96 0 0 0-.9-.9c-.2-.1-.4-.1-.6-.1s-.3 0-.5.1c-.6.2-1.1.9-1.1 1.8v.3a1.53 1.53 0 0 0 .4 1c.2.3.6.5.8.5h.1V32c0-.2.1-.4.3-.6.1-.1.2-.1.3-.1s.2 0 .3.1c.4.2.6.6.7 1 .1.2.1.4.1.5l-.4-.1h-.1c-.2 0-.3.2-.4.4 0 .3.1.5.3.6l.4.1c0 .1-.1.2-.1.4-.1.2-.2.4-.3.5s-.2.1-.3.1c-.2 0-.3-.1-.4-.2-.2-.2-.2-.4-.1-.7v-.1h-.1c-.5.2-.7.8-.3 1.5-.4.1-.8.1-1.2.1H87c-2.5-.3-4-2.6-4.5-3.9-.1.1-.3.1-.4.1h-.4c-.3 0-.6-.1-.8-.2-.5 1.2-1.9 3.6-4.5 3.9h-.7c-.5 0-.9-.1-1.2-.1.4-.7.2-1.3-.3-1.5h-.1v.1c0 .2 0 .5-.1.7a.76.76 0 0 1-.4.2c-.1 0-.2 0-.3-.1s-.2-.3-.3-.5-.1-.3-.1-.4l.3-.1c.2-.1.4-.3.3-.6 0-.2-.2-.4-.4-.4H73l-.4.1c0-.1 0-.3.1-.5.1-.4.3-.8.7-1 .1 0 .2-.1.2-.1.1 0 .2 0 .3.1.2.1.3.3.3.6v.3c.2 0 .7-.4.8-.5.1-.2.3-.7.4-1v-.3c0-.8-.4-1.6-1.1-1.8-.2-.1-.3-.1-.5-.1s-.4 0-.6.1c-.4.2-.6.5-.9.9-.3.6-.5 1.3-.6 1.9v.1c0 .3-.1.7-.1 1v.5h-.2c0-.2 0-.3-.1-.5v-1l.4-2.3c.1-.5.1-1 .1-1.5-.1-.4-.2-.8-.4-1.1-.3-.5-1.7-2.3-1.7-2.3l-1 3c-.1.4-.2.9-.2 1.3.1.5.2.9.4 1.4.3.6.7 1.3.9 2l.3.9c0 .2.1.3.1.5H70c0-.1-.1-.3-.1-.5l-.3-.9v-.1c-.3-.6-.5-1.2-1-1.6-.3-.3-.6-.4-1-.4h0c-.4 0-.7.2-1 .4a2.44 2.44 0 0 0-.6 2.2c0 .1.1.2.1.3.1.3.4.6.6.8.2.1.4.2.6.2.1 0 .2 0 .2-.1s-.1-.2-.1-.3c0-.3 0-.5.2-.7a.55.55 0 0 1 .5-.3h.1c.4 0 .7.3.8.6.1.2.2.4.2.5l-.4.1c-.2.1-.4.3-.3.6 0 .2.2.4.4.4h.1l.4-.1v.4c0 .2-.1.5-.2.6a.55.55 0 0 1-.5.3h-.2c-.2-.1-.2-.3-.3-.6v-.1c-.1 0-.1 0-.1.1-.4.4-.4 1.1 0 1.6-.4.2-.8.4-1.3.4h-.2c-1.6 0-3.6-1.7-4.5-2.7-.3.3-.7.6-1.1.6h0l2 9.9c5.9-2.3 12-3.5 18.4-3.5 6.5.2 12.7 1.4 18.5 3.7M81.5 43c-6.3 0-12.3 1.2-18.1 3.5-.1 0-.2.1-.3.1s-.2.1-.3.1c-.8.5-1.2 1.5-.8 2.5.3.8 1.1 1.2 1.8 1.2.3 0 .5 0 .8-.1C70 48.1 75.7 47 81.5 47c5.9 0 11.6 1.1 16.9 3.3.2.1.5.1.8.1.8 0 1.5-.5 1.9-1.2.4-.9 0-2-.8-2.5-.1-.1-.2-.1-.3-.1s-.2-.1-.3-.1C93.9 44.1 87.8 43 81.5 43m0 6.5c23.2 0 42.1 18.8 42.1 42.1 0 23.2-18.8 42.1-42.1 42.1-23.2 0-42.1-18.8-42.1-42.1 0-3.1.3-6.2 1-9.1 0-.1.1-.2.1-.3v-.1c0-.1.1-.3.1-.4C45 63.2 61.7 49.5 81.5 49.5M41.6 74.8c-2.3 5.3-3.4 11-3.4 16.9 0 5.8 1.1 11.5 3.4 16.9 2.2 5.2 5.3 9.8 9.3 13.8s8.6 7.1 13.8 9.3c5.3 2.3 11 3.4 16.9 3.4s11.5-1.1 16.9-3.4c5.2-2.2 9.8-5.3 13.8-9.3s7.1-8.6 9.3-13.8c2.3-5.3 3.4-11 3.4-16.9 0-5.8-1.1-11.5-3.4-16.9-2.2-5.2-5.3-9.8-9.3-13.8s-8.6-7.1-13.8-9.3c-5.3-2.3-11-3.4-16.9-3.4s-11.6 1.1-17 3.4c-5.2 2.2-9.8 5.3-13.8 9.3-3.9 4-7.1 8.6-9.2 13.8m37.8 66.8c0 2.8 2.2 5.2 2.2 5.2s2.2-2.3 2.2-5.2c0-2.8-2.2-5.2-2.2-5.2s-2.2 2.3-2.2 5.2m-5.1-4.6c-2.5 1.4-3.5 4.4-3.5 4.4s3.1.8 5.6-.6 3.5-4.4 3.5-4.4-3.1-.8-5.6.6m-.9-1.3s-2.9-1.2-5.6-.2-4.1 3.8-4.1 3.8 2.9 1.2 5.6.2c2.6-1 4.1-3.8 4.1-3.8m-6.3-1.7s-2.7-1.6-5.5-1-4.6 3.2-4.6 3.2 2.7 1.6 5.5 1c2.7-.6 4.6-3.2 4.6-3.2m-6-2.5s-2.4-2-5.3-1.8c-2.8.2-5 2.5-5 2.5s2.4 2 5.3 1.8c2.8-.2 5-2.5 5-2.5m-10.6-6c-2.8-.2-5.3 1.7-5.3 1.7s2.1 2.3 5 2.6c2.8.2 5.3-1.7 5.3-1.7s-2.1-2.3-5-2.6m0-1.6s-1.8-2.6-4.5-3.3c-2.8-.6-5.5.9-5.5.9s1.8 2.6 4.5 3.3 5.5-.9 5.5-.9m-4.4-4.8s-1.4-2.8-4-3.9c-2.6-1-5.6.1-5.6.1s1.4 2.8 4 3.9c2.7 1.1 5.6-.1 5.6-.1m-3.6-5.4s-.9-3-3.4-4.4-5.5-.7-5.5-.7.9 3 3.4 4.4c2.4 1.4 5.5.7 5.5.7m-8.2-7.4c2.2 1.8 5.4 1.5 5.4 1.5s-.5-3.1-2.7-4.9-5.4-1.5-5.4-1.5.5 3.2 2.7 4.9m3.5-4.7s0-3.2-2-5.2c-2-2.1-5.1-2.3-5.1-2.3s0 3.2 2 5.2c2 2.1 5.1 2.3 5.1 2.3m-1-6.5s.4-3.1-1.2-5.5c-1.6-2.3-4.7-3-4.7-3s-.4 3.1 1.2 5.5 4.7 3 4.7 3"/><path d="M36.8 88.6s.9-3-.4-5.6c-1.3-2.5-4.3-3.6-4.3-3.6s-.9 3 .4 5.6c1.3 2.5 4.3 3.6 4.3 3.6m.9-6.4s1.3-2.9.4-5.6-3.7-4.2-3.7-4.2-1.3 2.9-.4 5.6 3.7 4.2 3.7 4.2m1.8-6.3s1.7-2.7 1.2-5.5-3-4.7-3-4.7-1.7 2.6-1.2 5.5c.5 2.8 3 4.7 3 4.7m2.8-5.9s2.1-2.4 2-5.2-2.3-5.1-2.3-5.1-2.1 2.4-2 5.2c0 2.9 2.3 5.1 2.3 5.1m6.2-10.3c.3-2.8-1.6-5.4-1.6-5.4s-2.4 2.1-2.7 4.9 1.5 5.4 1.5 5.4 2.5-2.1 2.8-4.9m5-4.5c.7-2.8-.8-5.5-.8-5.5s-2.7 1.7-3.4 4.4c-.7 2.8.8 5.5.8 5.5s2.7-1.6 3.4-4.4m5.6-3.6c1.1-2.6 0-5.6 0-5.6s-2.9 1.3-4 3.9-.1 5.6-.1 5.6 3-1.3 4.1-3.9M88.7 137c-2.5-1.4-5.6-.6-5.6-.6s1 3 3.5 4.4 5.6.6 5.6.6-1-3.1-3.5-4.4m6.5-1.6c-2.7-1-5.6.2-5.6.2s1.4 2.8 4.1 3.8 5.6-.2 5.6-.2-1.5-2.8-4.1-3.8m6.2-2.4c-2.8-.6-5.5 1-5.5 1s1.8 2.6 4.6 3.2 5.5-1 5.5-1-1.8-2.6-4.6-3.2m5.8-3.3c-2.8-.2-5.3 1.8-5.3 1.8s2.2 2.3 5 2.5 5.3-1.8 5.3-1.8-2.2-2.4-5-2.5m5.2-4.2c-2.8.2-5 2.6-5 2.6s2.5 1.9 5.3 1.7 5-2.6 5-2.6-2.4-1.9-5.3-1.7m4.6-4.8c-2.8.6-4.5 3.3-4.5 3.3s2.7 1.6 5.5.9c2.8-.6 4.5-3.3 4.5-3.3s-2.7-1.6-5.5-.9m3.8-5.5c-2.7 1-4 3.9-4 3.9s2.9 1.2 5.6.1c2.7-1 4-3.9 4-3.9s-2.9-1.1-5.6-.1m3.1-5.9c-2.5 1.4-3.4 4.4-3.4 4.4s3.1.7 5.5-.7c2.5-1.4 3.4-4.4 3.4-4.4s-3.1-.8-5.5.7m2.1-6.4c-2.2 1.8-2.7 4.9-2.7 4.9s3.1.3 5.4-1.5c2.2-1.8 2.7-4.9 2.7-4.9s-3.2-.2-5.4 1.5m1.1-6.5c-2 2.1-2 5.2-2 5.2s3.1-.2 5.1-2.3 2-5.2 2-5.2-3.1.2-5.1 2.3m.2-6.7c-1.6 2.3-1.2 5.5-1.2 5.5s3.1-.6 4.7-3c1.6-2.3 1.2-5.5 1.2-5.5s-3 .7-4.7 3m-.7-6.7c-1.3 2.5-.4 5.6-.4 5.6s3-1.1 4.3-3.6.4-5.6.4-5.6-3 1.1-4.3 3.6m-1.4-.8s2.8-1.5 3.7-4.2-.4-5.6-.4-5.6-2.8 1.5-3.7 4.2.4 5.6.4 5.6m-1.8-6.3s2.5-1.9 3-4.7-1.2-5.5-1.2-5.5-2.5 1.9-3 4.7c-.5 2.9 1.2 5.5 1.2 5.5m-2.7-5.9s2.2-2.2 2.3-5.1c.1-2.8-2-5.2-2-5.2s-2.2 2.2-2.3 5.1c-.1 2.8 2 5.2 2 5.2m-3.6-5.5s1.9-2.5 1.5-5.4c-.3-2.8-2.7-4.9-2.7-4.9s-1.9 2.5-1.6 5.4c.4 2.9 2.8 4.9 2.8 4.9m-4.3-4.8s1.5-2.8.8-5.5c-.7-2.8-3.4-4.4-3.4-4.4s-1.5 2.8-.8 5.5c.8 2.7 3.4 4.4 3.4 4.4m-9-13.7s-1.1 3 .1 5.6c1.1 2.6 4 3.9 4 3.9s1.1-3-.1-5.6c-1.1-2.7-4-3.9-4-3.9m-5.5 67.5h0m-.2-.1h0m-2.3-.7h0m-28.7 0h0m-2.5.8h0m36.5-7l-1-2.6-3 1.9c-1 .6-2.6 1.6-3.8 3s-2.1 3.5-2.1 3.5h1c.6 0 1.4 0 2.4.2h.1c.1 0 .3.1.4.1h.2s-.3 3.3-3.2 6.4c-.6.7-1.9 1.7-2.7 2.2-.5.4-1 .6-1.6.9h-.6c-2.3 0-4.2-1.7-4.2-3.8v-14c-.6 0-1.2.1-1.8.1s-1.2 0-1.8-.1v14c0 2.1-1.9 3.8-4.2 3.8h-.6c-.5-.3-1.1-.5-1.6-.9-.6-.4-1.5-1.1-2.1-1.7l-.6-.6c-2.8-3.2-3.2-6.4-3.2-6.4h.2c.1 0 .3-.1.4-.1h.1c1-.2 1.8-.2 2.4-.2h1s-.9-2.1-2.1-3.5-2.8-2.4-3.8-3l-3-1.9-1 2.6c-.5 1.3-1.3 2.5-1.6 4.9s.2 4.3.2 4.3 1.3-.9 3.3-1.8c0 0 .1 0 .1-.1 0 0 .1 0 .1-.1h.5c.1.5 1 5.3 3.3 8.1l.1.1c.2.2.4.5.7.7.8.7 2.1 1.8 3.7 2.9l5.6 3.8c2.3 1.7 3.5 3 3.5 3s1.2-1.3 3.5-3c1.6-1.2 3.8-2.6 5.7-3.8 1.6-1.1 2.9-2.2 3.7-2.9.1-.1.2-.2.3-.2l.5-.5c.1-.1.1-.2.2-.3.2-.2.3-.5.5-.8.1-.2.2-.3.3-.5.3-.5.6-1.1.8-1.7v-.1c.3-.7.5-1.4.7-2s.3-1.1.4-1.6l.2-1.1h.4s.1 0 .1.1h.1c2 .9 3.3 1.8 3.3 1.8s.6-1.9.2-4.3c.7-2.3-.1-3.5-.6-4.8M78.8 60.4c-.7-.7-1.1-1.6-1.1-2.6s.4-1.9 1.1-2.6 1.6-1.1 2.6-1.1 1.9.4 2.6 1.1 1.1 1.6 1.1 2.6-.4 1.9-1.1 2.6c-.2.2-.5.5-.8.6h0a1.8 1.8 0 1 0-3.6 0v.1c-.2-.2-.5-.4-.8-.7m.9 9.4v7.9l1.8.9 1.8-.9v-7.9h5l13.3-2.1v-3.1H83.3v-1c2.5-.8 4.3-3.1 4.3-5.9 0-3.4-2.8-6.1-6.1-6.1a6.06 6.06 0 0 0-6.1 6.1c0 2.8 1.8 5.1 4.3 5.9v1H61.4v3.1l13.3 2.1h5zm3.2 9.5c.1.1.3.1.4.2l4.4 2.3c1.2-.6 2.6-1.3 4.2-1.8l12.4-6.8a29.49 29.49 0 0 0 4.3-2.9c.6-.5 1.3-1.2 1.9-1.8l1.1-1.2.7-.8-1 .1-1.6.2c-.8.1-1.9.4-2.5.6-1.4.5-3.5 1.3-4.8 2l-19 9.7c-.2.1-.4.2-.5.2m-21 22.8c.3 0 .7-.1 1-.2.5-.3.8-.7 1-1.2s.1-1.1-.1-1.6c-.4-.7-1-1.1-1.8-1.1-.2 0-.4 0-.5.1l-.5-1 8.4-4.6c-1.4-.2-2.7-.4-4-.9-1.3-.4-2.4-.9-3.4-1.5l-3.3 1.7c-.2.1-.3.2-.4.2l-.5-.9c.3-.2.5-.6.6-.9.2-.5.1-1.1-.2-1.6-.4-.7-1.1-1.1-1.8-1.1-.3 0-.7.1-1 .2-.5.3-.8.7-1 1.2s-.1 1.1.1 1.6l1.6 2.9h-.2c-.2 0-.4.1-.6.2s-.3.2-.5.4c0 0-.1.1-.1.2h-.2c-.2 0-.4.1-.5.2-.2.1-.3.2-.5.4 0 .1-.1.1-.1.2h-.2c-.2 0-.4.1-.6.2s-.3.2-.5.4c0 .1-.1.1-.1.2h-.2c-.2 0-.4.1-.5.2-.2.1-.4.2-.5.4l-.1.1h-.3c-.2 0-.4.1-.5.2-.2.1-.3.2-.5.4 0 .1-.1.1-.1.1H49c-.2 0-.4.1-.5.2-.2.1-.3.2-.5.4 0 .1-.1.1-.1.1h-.3c-.2 0-.4.1-.5.2-.2.1-.3.2-.5.4l-.1.1h-.3c-.2.1-.4.1-.5.2s-.3.2-.4.3H45c-.7 0-1.4.4-1.9.9s-.7 1.2-.7 2c.1 1.5 1.3 2.6 2.7 2.6h.2c.9 0 1.7-.5 2.2-1.3a.78.78 0 0 0 .4-.4h.3c.1 0 .3-.1.4-.1s.2-.1.3-.1a.78.78 0 0 0 .4-.4h.3c.1 0 .3-.1.4-.1s.2-.1.3-.2a.78.78 0 0 0 .4-.4h.3c.1 0 .3-.1.4-.1s.2-.1.3-.2a.78.78 0 0 0 .4-.4h.3c.1 0 .3-.1.4-.1s.2-.1.3-.1a.78.78 0 0 0 .4-.4h.3c.1 0 .3-.1.4-.1s.2-.1.3-.2a.78.78 0 0 0 .4-.4h.3c.1 0 .3-.1.4-.1s.2-.1.3-.1c.2-.1.3-.3.4-.4h.3c.1 0 .3-.1.4-.1s.2-.1.3-.1a.78.78 0 0 0 .4-.4h.3c.1 0 .3-.1.4-.1s.1 0 .1-.1l.7 1.3.8 1.5c.4.7 1.1 1.1 1.9 1.1m-9.5-33.6l1.9 1.8c1.2.9 3 2.2 4.3 2.9.4.2 4.7 2.6 10.5 5.8 2.8.5 5.3 1.3 7.3 2.3.2.1.5.2.7.4.2.1.4.2.7.4.7.4 1.3.8 1.8 1.2s.9.8 1.2 1.2c.3-.1.7-.1 1-.1a4.44 4.44 0 0 1 1.3.2 29.2 29.2 0 0 1 3.1-1.8c-1-.5-2-1.1-3.1-1.6l-1.8-.9c-.2-.1-.5-.2-.7-.4-.2-.1-.5-.2-.7-.4a.76.76 0 0 0-.4-.2l-19-9.8c-1.3-.7-3.3-1.5-4.8-2-.7-.2-1.7-.5-2.5-.6l-1.6-.2-1-.1.6.8c.2-.1.6.5 1.2 1.1M118 99.6h-.3c-.1-.1-.3-.2-.4-.3s-.3-.2-.5-.2h-.3c0-.1-.1-.1-.1-.1-.1-.2-.3-.3-.5-.4s-.4-.2-.5-.2h-.3l-.1-.1c-.1-.2-.3-.3-.5-.4s-.4-.2-.5-.2h-.3c0-.1-.1-.1-.1-.1-.1-.2-.3-.3-.5-.4s-.4-.2-.6-.2h-.2c0-.1-.1-.1-.1-.1-.1-.2-.3-.3-.5-.4s-.4-.2-.6-.2h-.2l-.1-.1c-.1-.2-.3-.3-.5-.4s-.4-.2-.6-.2h-.2c0-.1-.1-.1-.1-.2-.1-.2-.3-.3-.5-.4s-.4-.2-.5-.2h-.2c0-.1-.1-.1-.1-.2-.1-.2-.3-.3-.5-.4s-.4-.2-.6-.2h-.2l1.6-2.9c.3-.5.3-1 .1-1.6-.2-.5-.5-.9-1-1.2-.3-.2-.6-.2-1-.2-.8 0-1.5.4-1.8 1.1-.3.5-.3 1-.1 1.6.1.4.3.7.6.9l-.5.9c-.1-.1-.3-.1-.4-.2l-4.4-2.3c-1 .7-2.1 1.3-3.9 1.8 0 .1.1.3.1.4 0 .5-.1 1.1-.6 1.7l6.6 3.6-.6.9c-.2 0-.3-.1-.5-.1-.8 0-1.5.4-1.8 1.1-.3.5-.3 1-.2 1.6.2.5.5.9 1 1.2.3.2.6.2 1 .2.8 0 1.5-.4 1.8-1.1l.7-1.4.7-1.3.1.1c.2.1.3.1.4.1h.3c.1.2.3.3.4.4s.2.1.3.1c.2.1.3.1.4.1h.3c.1.2.3.3.4.4.1 0 .2.1.3.1.1.1.3.1.4.1h.3c.1.2.3.3.4.4s.2.1.3.1c.1.1.3.1.4.1h.3c.1.2.3.3.4.4s.2.1.3.1c.1.1.3.1.4.1h.3a.78.78 0 0 0 .4.4c.1.1.2.1.3.2s.3.1.4.1h.3a.78.78 0 0 0 .4.4c.1.1.2.1.3.2s.3.1.4.1h.3a.78.78 0 0 0 .4.4c.1.1.2.1.3.1.1.1.3.1.4.1h.3c.1.2.3.3.4.4.5.7 1.3 1.2 2.2 1.3h.1c1.4 0 2.6-1.1 2.7-2.6 0-.7-.2-1.4-.7-2-.1-.5-.8-.8-1.5-.8M61.9 88.7c.2.1.4.2.7.4.2.1.5.2.7.4.7.4 1.5.7 2.4 1 2 .7 4 .9 5.6.9h1.3c.6 0 1.1-.1 1.5-.1.5-.1.8-.1.8-.1l.6 2.8-4.2 5.7s1.7 3 8.4 3.5c.6 0 1.2.1 1.8.1s1.3 0 1.8-.1c6.7-.5 8.1-3.5 8.1-3.5L86.1 95l1-2.5c-.2 0-.4-.1-.6-.1-.6 0-1.1.1-1.4.2h-.5l-.4-.1c.1 0 .2-.1.4-.2s.4-.2.7-.4c.6-.3 1.4-.6 1.9-.5.1 0 .2.1.4.1l.9.3c.4.1.7.3 1.3.4h.2c.4.1.7.1.8.1.3 0 .4-.1 1.2-.1h.4c1.7.1 1.6.9 1.6.9.1-.1.3-.2.4-.3.5-.5.6-.9.5-1.3-.1-.2-.2-.4-.4-.6s-.4-.4-.6-.5c-.2-.2-.4-.2-.4-.2.4-1.1-2.9-1.6-4.3-2-.9-.2-2.9-1.1-4.4-1.8-.5-.2-.9-.4-1.2-.6h-.1c-.2-.1-.3-.1-.3-.2h0c-.1 0-.2-.1-.3-.1-.3-.1-.6-.2-1-.2h0c-.3 0-.5 0-.8.1l-.8.2s-.2-.4-.7-.9l-.3-.3c-.6-.6-1.5-1.2-2.9-1.9-.2-.1-.5-.2-.7-.3s-.5-.2-.7-.3c-.4-.2-.9-.4-1.4-.5-.8-.3-1.8-.6-2.8-.8-.7-.2-1.4-.3-2.2-.5-1.6-.3-3.5-.6-5.6-.7l-5.4-.2c-11 0-16.5 2.8-16.5 2.8a121.9 121.9 0 0 0 11.2 2.3c4.7 1.1 7 2.9 9.6 4.4"/><path d="M100.9 79.2c-3 .2-5.9 1-8.5 2-1.2.4-2.3.9-3.3 1.4-.2.1-.5.2-.7.3s-.5.2-.7.4l-3.8 2.2.3.1h.1c.5.2 4 1.3 5.3 1.6.2 0 .4.1.6.1 2.1.4 3.8.9 4.4 1.9.1.1.1.2.1.4.2.2.5.4.7.6 1.4-.3 2.5-.8 3.3-1.3.2-.1.4-.3.6-.4s.4-.3.6-.4c1.2-.9 2.3-2 4.5-2.8 6.5-2.6 17.3-3.9 17.3-3.9s-9.7-2.2-18.2-2.2c-.9-.1-1.7-.1-2.6 0M83.6 4a1.69 1.69 0 0 1-.3 1c.8.4 1.6.9 2.2 1.4V1.5c-.6.5-1.4 1.1-2.2 1.4.2.4.3.7.3 1.1m-2.1-2a1.69 1.69 0 0 1 1 .3c.4-.9 1-1.7 1.5-2.3h-4.9c.5.6 1.1 1.4 1.4 2.2.3-.1.7-.2 1-.2m-2 2a1.69 1.69 0 0 1 .3-1c-.8-.3-1.6-.9-2.2-1.4v4.9c.6-.6 1.4-1.1 2.2-1.5a1.69 1.69 0 0 1-.3-1"/><path d="M84 8c-.5-.6-1.1-1.4-1.4-2.2a1.93 1.93 0 0 1-1 .3 1.69 1.69 0 0 1-1-.3c-.4.8-.9 1.6-1.4 2.2H84zm-3.3-2.7c.2.2.5.3.9.3.3 0 .6-.1.9-.3.2-.1.3-.3.4-.4.1-.3.2-.6.2-.9s-.1-.6-.3-.9c-.1-.2-.3-.3-.4-.4-.2-.2-.5-.3-.9-.3-.3 0-.6.1-.9.3-.2.1-.3.3-.4.4-.1.3-.2.6-.2.9s.1.6.3.9c.1.1.2.3.4.4m0 12.3c.2.2.5.3.9.3.3 0 .6-.1.9-.3.2-.1.3-.3.4-.4.2-.2.3-.5.3-.9 0-.3-.1-.6-.3-.9-.1-.2-.3-.3-.4-.4-.2-.2-.5-.3-.9-.3-.3 0-.6.1-.9.3-.2.1-.3.3-.4.4a1.69 1.69 0 0 0-.3 1c0 .3.1.6.3.9a1.38 1.38 0 0 0 .4.3m0 3.3c.2.2.5.3.9.3.3 0 .6-.1.9-.3.2-.1.3-.3.4-.4.2-.2.3-.5.3-.9 0-.3-.1-.6-.3-.9-.1-.2-.3-.3-.4-.4-.2-.2-.5-.3-.9-.3-.3 0-.6.1-.9.3-.2.1-.3.3-.4.4-.2.3-.3.6-.3.9s.1.6.3.9c.1.1.2.3.4.4m0 3.2c.2.2.5.3.9.3.3 0 .6-.1.9-.3a.78.78 0 0 0 .4-.4c.2-.2.3-.5.3-.9 0-.3-.1-.6-.3-.8-.1-.2-.3-.3-.4-.4-.2-.2-.5-.3-.9-.3-.3 0-.6.1-.9.3a.78.78 0 0 0-.4.4c-.2.2-.3.5-.3.8s.1.6.3.9a.78.78 0 0 0 .4.4M59.9 34.4c.2.2.5.3.9.3.3 0 .6-.1.9-.3.2-.1.3-.3.4-.4.2-.2.3-.5.3-.9 0-.3-.1-.6-.3-.9-.1-.2-.3-.3-.4-.4-.2-.2-.5-.3-.9-.3-.3 0-.6.1-.9.3-.2.1-.3.3-.4.4-.2.2-.3.5-.3.9 0 .3.1.6.3.9a.78.78 0 0 0 .4.4"/><path d="M80.7 30.9c.2.2.5.3.9.3.3 0 .6-.1.9-.3.2-.1.3-.3.4-.4.2-.2.3-.5.3-.9 0-.3-.1-.6-.3-.9-.1-.2-.3-.3-.4-.4-.3-.2-.5-.3-.9-.3-.3 0-.6.1-.9.3-.2.1-.3.3-.4.4-.2.3-.3.6-.3.9s.1.6.3.9l.4.4m.8-16.2a3.33 3.33 0 0 0 3.3-3.3 3.33 3.33 0 0 0-3.3-3.3 3.33 3.33 0 0 0-3.3 3.3 3.33 3.33 0 0 0 3.3 3.3M59.9 27.5c-.8-2.5-3.9-8.2.6-12.2 1.5-1.3 3.7-2.1 5.5-2.1 1.3 0 3.1.4 4.8 1 3 1 4.9 1.6 8.4 1.6v1.6c-3.8 0-5.8-.6-8.9-1.7-1.4-.5-3-.9-4.1-.9-1.8 0-3.4.6-4.6 1.7-2.9 2.5-1.9 5.9-.6 9.3.2.4.3.8.4 1.2l-1.5.5zm16.6 5.2c.8-.7 2.3-1.6 3.2-2l-.3-.6c-.1-.6 0-1.1.3-1.5-.9-.4-2.4-1.4-3.2-2.1v6.2z"/><path d="M86.6 32.7v-6.2c-.8.7-2.3 1.7-3.2 2.1.1.2.2.4.3.7.1.5 0 1.1-.3 1.5.9.3 2.4 1.2 3.2 1.9m-6.2-4.9c.2-.1.4-.2.7-.3h.4c.4 0 .8.1 1.1.3.4-.9 1.3-2.4 2-3.2h-6.2c.7.7 1.7 2.3 2 3.2m-20.1 3.3h.4c.3 0 .5.1.8.1.3-1.1 1.2-3.2 1.7-4.2l-4 1.4 1.1 2.7zm5.5 4.1l-1.3-6.1c-.3.8-1.5 2.1-2.3 2.7.2.3.4.6.5 1s.1.8-.1 1.1c1 .1 2.6.8 3.2 1.3m9.8-23c-.2.2-.4.4-.6.7-.1.3-.1.6-.1.9 0 .2.1.4.2.5.2.2.4.4.7.6.3.1.6.1.9.1.2 0 .4-.1.6-.2.2-.2.4-.4.6-.7.1-.3.1-.6.1-.9 0-.2-.1-.4-.2-.5-.2-.2-.4-.4-.7-.6-.3-.1-.6-.1-.9-.1-.2 0-.4 0-.6.2m-3-1.1c-.3.1-.6.2-.8.4s-.3.5-.4.8v.6c.1.3.2.6.4.8s.5.4.8.4h.6c.3-.1.6-.2.8-.4s.4-.5.4-.8v-.6c-.1-.3-.2-.6-.4-.8s-.5-.4-.8-.4h-.6M69 9.8c-.3.1-.5.3-.7.6s-.3.6-.3.9c0 .2 0 .4.1.6.1.3.3.5.6.7s.6.2.9.2c.2 0 .4 0 .6-.1.3-.1.5-.3.7-.6s.3-.6.2-.9c0-.2-.1-.4-.1-.6-.1-.3-.3-.5-.6-.7s-.6-.2-.9-.2c-.2 0-.4 0-.5.1m-4.2-.1c-.2.2-.4.5-.5.8s-.1.6 0 .9c.1.2.2.4.3.5.2.2.5.4.8.5s.6.1.9 0c.2-.1.4-.2.5-.3.2-.2.4-.4.5-.8.1-.3.1-.6 0-.9-.1-.2-.2-.4-.3-.5-.2-.2-.4-.4-.8-.5-.3-.1-.6-.1-.9 0-.1.1-.3.2-.5.3"/><path d="M61 10.9c-.2.2-.3.5-.2.9 0 .3.1.6.3.9.1.2.3.3.4.4.2.2.5.2.9.2.3 0 .6-.1.9-.3.2-.1.3-.3.4-.4.2-.2.2-.5.2-.9 0-.3-.1-.6-.3-.8-.1-.2-.3-.3-.4-.4-.2-.2-.5-.3-.9-.3-.3 0-.6.1-.8.3-.2 0-.4.2-.5.4m-3.6 2.5c-.1.3 0 .6.1.9s.3.5.6.7c.2.1.4.2.6.2.3.1.6 0 .9-.1s.5-.3.7-.6c.1-.2.2-.4.2-.6.1-.3 0-.6-.1-.9s-.3-.5-.6-.7c-.2-.1-.4-.2-.6-.2-.3-.1-.6 0-.9.1s-.5.3-.7.6c-.1.2-.2.4-.2.6m-2.3 3.5c0 .3.2.6.4.8s.5.4.8.4h.6c.3-.1.6-.2.8-.4s.4-.5.4-.8v-.6c-.1-.3-.2-.6-.4-.8s-.5-.4-.8-.4h-.6c-.3 0-.6.2-.8.4s-.4.5-.4.8v.6m-.8 4c.2.2.4.5.7.6s.6.2.9.1c.2 0 .4-.1.6-.2.2-.2.5-.4.6-.7s.2-.6.1-.9c0-.2-.1-.4-.2-.6-.2-.3-.4-.5-.7-.6s-.6-.2-.9-.1c-.2 0-.4.1-.6.2-.3.2-.5.4-.6.7s-.2.6-.1.9.1.5.2.6"/><path d="M55.2 25c.2.2.5.3.8.3s.6-.1.9-.2a.78.78 0 0 0 .4-.4c.2-.2.3-.5.3-.8s-.1-.6-.2-.9a.78.78 0 0 0-.4-.4c-.2-.2-.5-.3-.8-.3s-.6.1-.9.2a.78.78 0 0 0-.4.4c-.2.2-.3.5-.3.8s.1.6.2.9a.78.78 0 0 0 .4.4m1.2 3.5c.2.2.5.3.9.3.3 0 .6-.1.9-.3.2-.1.3-.3.4-.4.2-.2.3-.5.3-.9 0-.3-.1-.6-.3-.9-.1-.2-.3-.3-.4-.4-.2-.2-.5-.3-.9-.3-.3 0-.6.1-.9.3-.2.1-.3.3-.4.4-.2.2-.3.5-.3.9 0 .3.1.6.3.9.1.1.2.3.4.4m46.8 5.9c-.2.2-.5.3-.9.3-.3 0-.6-.1-.9-.3-.2-.1-.3-.3-.4-.4-.2-.2-.3-.5-.3-.9 0-.3.1-.6.3-.9.1-.2.3-.3.4-.4.2-.2.5-.3.9-.3.3 0 .6.1.9.3.2.1.3.3.4.4.2.2.3.5.3.9 0 .3-.1.6-.3.9a.78.78 0 0 1-.4.4m-.1-6.9c.8-2.5 3.9-8.2-.7-12.2-1.5-1.3-3.7-2.1-5.5-2.1-1.3 0-3.1.4-4.8 1-3 1-4.9 1.6-8.4 1.6v1.6c3.8 0 5.8-.6 8.9-1.7 1.4-.5 3.1-.9 4.3-.9 1.4 0 3.3.6 4.5 1.7 2.9 2.5 1.9 5.9.6 9.3-.2.4-.3.8-.4 1.2l1.5.5z"/><path d="M102.8 31.1h-.4c-.3 0-.5.1-.8.1-.3-1.1-1.2-3.2-1.7-4.2l4 1.4-1.1 2.7zm-5.6 4.1l1.3-6.1c.3.8 1.5 2.1 2.3 2.7-.2.3-.4.6-.5 1s-.1.8.1 1.1c-1 .1-2.5.8-3.2 1.3m-9.7-23c.2.2.4.4.6.7.1.3.1.6.1.9 0 .2-.1.4-.2.5-.2.2-.4.4-.7.6-.3.1-.6.1-.9.1-.2 0-.4-.1-.5-.2-.2-.2-.4-.4-.6-.7-.1-.3-.1-.6-.1-.9 0-.2.1-.4.2-.5.2-.2.4-.4.7-.6.3-.1.6-.1.9-.1.1 0 .3 0 .5.2m2.9-1.1c.3.1.6.2.8.4s.4.5.4.8v.6c-.1.3-.2.6-.4.8s-.5.4-.8.4h-.6c-.3-.1-.6-.2-.8-.4s-.4-.5-.4-.8v-.6c.1-.3.2-.6.4-.8s.5-.4.8-.4h.6m3.7-1.3c.3.1.5.3.7.6s.2.6.2.9c0 .2 0 .4-.1.6-.1.3-.3.5-.6.7s-.6.2-.9.2c-.2 0-.4 0-.6-.1-.3-.1-.5-.3-.7-.6-.1-.3-.1-.6-.1-.9 0-.2 0-.4.1-.6.1-.3.3-.5.6-.7s.6-.2.9-.2c.1 0 .3 0 .5.1m4.1-.1c.2.2.4.5.5.8s.1.6 0 .9c-.1.2-.2.4-.3.5-.2.2-.4.4-.8.5-.3.1-.6.1-.9 0-.2-.1-.4-.2-.5-.3-.2-.2-.4-.4-.5-.8-.1-.3-.1-.6 0-.9.1-.2.2-.4.3-.5.2-.2.5-.4.8-.5s.6-.1.9 0c.2.1.4.2.5.3m3.9 1.2c.2.2.2.5.2.9 0 .3-.1.6-.3.9-.1.2-.3.3-.4.4-.2.2-.5.2-.9.2-.3 0-.6-.1-.8-.3-.2-.1-.3-.3-.4-.4-.2-.2-.3-.5-.2-.9 0-.3.1-.6.3-.8.1-.2.3-.3.4-.4.2-.2.5-.3.9-.3.3 0 .6.1.9.3 0 0 .2.2.3.4m3.6 2.5c.1.3 0 .6-.1.9s-.3.5-.6.7c-.2.1-.3.2-.5.2-.3.1-.6 0-.9-.1s-.5-.3-.7-.6c-.1-.2-.2-.4-.2-.6-.1-.3 0-.6.1-.9s.3-.5.6-.7c.2-.1.4-.2.5-.2.3-.1.6 0 .9.1s.5.3.7.6c.1.2.1.4.2.6m2.3 3.5c-.1.3-.2.6-.4.8s-.5.4-.8.4h-.6c-.3-.1-.6-.2-.8-.4s-.4-.5-.4-.8c0-.2-.1-.4 0-.6.1-.3.2-.6.4-.8s.5-.4.8-.4h.6c.3 0 .6.2.8.4s.4.5.4.8v.6m.7 4c-.2.2-.4.5-.7.6s-.6.2-.9.1c-.2 0-.4-.1-.6-.2-.2-.2-.5-.4-.6-.7s-.2-.6-.1-.9c0-.2.1-.4.2-.6.2-.3.4-.5.7-.6s.6-.2.9-.1c.2 0 .4.1.6.2.2.2.5.4.6.7s.2.6.1.9c0 .3-.1.5-.2.6m-.8 4.1c-.2.2-.5.3-.8.3s-.6-.1-.9-.2a.78.78 0 0 1-.4-.4c-.2-.2-.3-.5-.3-.8s.1-.6.2-.9a.78.78 0 0 1 .4-.4c.2-.2.5-.3.8-.3s.6.1.9.2a.78.78 0 0 1 .4.4c.2.2.3.5.3.8s-.1.6-.2.9a.78.78 0 0 1-.4.4m-1.2 3.5c-.2.2-.5.3-.9.3-.3 0-.6-.1-.9-.3-.2-.1-.3-.3-.4-.4-.2-.2-.3-.5-.3-.9 0-.3.1-.6.3-.9.1-.2.3-.3.4-.4.2-.2.5-.3.9-.3.3 0 .6.1.9.3.2.1.3.3.4.4.2.2.3.5.3.9 0 .3-.1.6-.3.9l-.4.4"/></svg>