<svg xmlns="http://www.w3.org/2000/svg" viewBox="0 0 41 49">
  <defs/>
  <g fill="none" fill-rule="evenodd">
    <g fill-rule="nonzero">
      <path fill="#3B3B3B" d="M31 28h-5.2v7.4h1.8v-3h3V31h-3v-1.4H31zM21.2 28H18v7.4h3.2c1 0 2-.4 2.6-1 1.2-1.4 1.2-4-.2-5.4-.6-.6-1.4-1-2.4-1z"/>
      <path fill="#f0f0f0" d="M19.8 29.6h1c1 0 1.6.4 1.8 1.2.2.6.2 1.4 0 1.8-.2.8-.8 1-1.6 1h-1.2v-4z"/>
      <path fill="#3B3B3B" d="M14.4 28H11v7.4h1.8v-2.6h1.6c1.2 0 2.2-.6 2.4-1.6.2-.6.2-1.2 0-1.8-.4-.8-1.2-1.4-2.4-1.4z"/>
      <path fill="#FAE500" d="M12.8 29.4h1c.4 0 1 0 1.2.4.2.2.2.8 0 1-.2.4-.6.4-1.2.4h-1v-1.8z"/>
      <path fill="#3B3B3B" d="M40.8 44V21.6l-6-6v26.6H6.6v-36h18.8l-6-6H.6v48h40.2z"/>
      <path fill="#3B3B3B" d="M19.4 21.6h21.4L19.4.2z"/>
    </g>
  </g>
</svg>