<svg xmlns="http://www.w3.org/2000/svg" width="23" viewBox="0 0 21 26">
  <defs/>
  <g fill="currentColor" fill-rule="nonzero">
    <path d="M13.755 4.063c-.63-.417-1.05-1.146-1.05-1.875C12.705.938 11.76 0 10.5 0 9.24 0 8.295.938 8.295 2.188c0 .833-.42 1.458-1.05 1.874C2.31 6.98 5.145 16.355 0 18.021v1.77c2.94-.416 3.675-2.083 3.675-2.083 1.26-1.77 1.68-4.062 2.1-6.041.525-2.5.945-4.896 2.52-5.73 1.47-.833 3.15-.833 4.515 0 1.575.938 1.995 3.23 2.52 5.73.42 1.979.84 4.27 2.1 6.041H6.615l-.105 2.084H21V18.02c-5.145-1.667-2.31-11.042-7.245-13.959zM10.5 25c1.68 0 3.15-1.458 3.15-3.125h-6.3C7.35 23.542 8.82 25 10.5 25z"/>
    <ellipse cx="6.468" cy="18.75" rx="1.024" ry="1.016"/>
  </g>
</svg>